# xmcd
#
# Track frame offsets: 
#        150
#        12134
#        21356
#        33407
#        46085
#        56844
#        68342
#        81452
#        92391
#        103616
#        115494
#        126714
#        137432
#        149446
#        162128
#        172105
#        182781
#        193042
#        206081
#        216741
#        227077
#        243523
#        251839
#        260135
#        273316
#
# Disc length: 3758 seconds
#
# Revision: 0
# Processed by: cddbd v1.5.2PL0 Copyright (c) Steve Scherf et al.
# Submitted via: ExactAudioCopy v1.0b1
#
DISCID=7d0eac19
DTITLE=Chuck Willis  - The Complete Chuck Willis - Disc 3  
DYEAR=1900
DGENRE=
TTITLE0=It's Too Late
TTITLE1=Kansas City Woman
TTITLE2=Juanita
TTITLE3=Whatcha Gonna Do When Your Baby Leaves You
TTITLE4=Ease the Pain
TTITLE5=C.C. Rider
TTITLE6=The Train Has Gone
TTITLE7=Love Me Cherry
TTITLE8=Betty and Dupree
TTITLE9=My Crying Eyes
TTITLE10=What Am I Living For
TTITLE11=Hang Up My Rock and Roll Shoes
TTITLE12=Thunder and Lightnin'
TTITLE13=My Life
TTITLE14=You'll Be My Love
TTITLE15=Keep a Drivin'
TTITLE16=There's Got to Be a Way
TTITLE17=Stop and Think
TTITLE18=From the Bottom of My Heart
TTITLE19=Just One Kiss
TTITLE20=I'll Be so Glad When Your Heart Is Mine
TTITLE21=Big Drops of Rain
TTITLE22=Sugar Sugar
TTITLE23=Love of Loves
TTITLE24=My Baby
EXTD=
EXTT0=
EXTT1=
EXTT2=
EXTT3=
EXTT4=
EXTT5=
EXTT6=
EXTT7=
EXTT8=
EXTT9=
EXTT10=
EXTT11=
EXTT12=
EXTT13=
EXTT14=
EXTT15=
EXTT16=
EXTT17=
EXTT18=
EXTT19=
EXTT20=
EXTT21=
EXTT22=
EXTT23=
EXTT24=
PLAYORDER=
